<mxfile host="app.diagrams.net" agent="Mozilla/5.0 (Windows NT 10.0; Win64; x64) AppleWebKit/537.36 (KHTML, like Gecko) Chrome/137.0.0.0 Safari/537.36" version="27.1.4">
  <diagram id="R2lEEEUBdFMjLlhIrx00" name="Page-1">
    <mxGraphModel dx="1716" dy="1617" grid="1" gridSize="10" guides="1" tooltips="1" connect="1" arrows="1" fold="1" page="1" pageScale="1" pageWidth="850" pageHeight="1100" math="0" shadow="0" extFonts="Permanent Marker^https://fonts.googleapis.com/css?family=Permanent+Marker">
      <root>
        <mxCell id="0" />
        <mxCell id="1" parent="0" />
        <mxCell id="40NyG70ImDQyrmvecJQj-22" style="edgeStyle=none;curved=1;rounded=0;orthogonalLoop=1;jettySize=auto;html=1;exitX=0.5;exitY=1;exitDx=0;exitDy=0;entryX=0;entryY=0;entryDx=0;entryDy=0;fontSize=12;startSize=8;endSize=8;" parent="1" source="40NyG70ImDQyrmvecJQj-1" target="40NyG70ImDQyrmvecJQj-21" edge="1">
          <mxGeometry relative="1" as="geometry" />
        </mxCell>
        <mxCell id="40NyG70ImDQyrmvecJQj-23" style="edgeStyle=none;curved=1;rounded=0;orthogonalLoop=1;jettySize=auto;html=1;exitX=1;exitY=0.75;exitDx=0;exitDy=0;entryX=0;entryY=0.5;entryDx=0;entryDy=0;fontSize=12;startSize=8;endSize=8;" parent="1" source="40NyG70ImDQyrmvecJQj-1" target="40NyG70ImDQyrmvecJQj-20" edge="1">
          <mxGeometry relative="1" as="geometry" />
        </mxCell>
        <mxCell id="40NyG70ImDQyrmvecJQj-24" style="edgeStyle=none;curved=1;rounded=0;orthogonalLoop=1;jettySize=auto;html=1;fontSize=12;startSize=8;endSize=8;" parent="1" source="40NyG70ImDQyrmvecJQj-1" target="40NyG70ImDQyrmvecJQj-19" edge="1">
          <mxGeometry relative="1" as="geometry" />
        </mxCell>
        <mxCell id="40NyG70ImDQyrmvecJQj-25" style="edgeStyle=none;curved=1;rounded=0;orthogonalLoop=1;jettySize=auto;html=1;exitX=1;exitY=0.25;exitDx=0;exitDy=0;entryX=0;entryY=0.5;entryDx=0;entryDy=0;fontSize=12;startSize=8;endSize=8;" parent="1" source="40NyG70ImDQyrmvecJQj-1" target="40NyG70ImDQyrmvecJQj-18" edge="1">
          <mxGeometry relative="1" as="geometry" />
        </mxCell>
        <mxCell id="40NyG70ImDQyrmvecJQj-26" style="edgeStyle=none;curved=1;rounded=0;orthogonalLoop=1;jettySize=auto;html=1;exitX=1;exitY=0;exitDx=0;exitDy=0;fontSize=12;startSize=8;endSize=8;entryX=0;entryY=0.5;entryDx=0;entryDy=0;" parent="1" source="40NyG70ImDQyrmvecJQj-1" target="40NyG70ImDQyrmvecJQj-17" edge="1">
          <mxGeometry relative="1" as="geometry">
            <mxPoint x="1080" y="200" as="targetPoint" />
          </mxGeometry>
        </mxCell>
        <mxCell id="40NyG70ImDQyrmvecJQj-27" style="edgeStyle=none;curved=1;rounded=0;orthogonalLoop=1;jettySize=auto;html=1;entryX=0;entryY=1;entryDx=0;entryDy=0;fontSize=12;startSize=8;endSize=8;" parent="1" source="40NyG70ImDQyrmvecJQj-1" target="40NyG70ImDQyrmvecJQj-16" edge="1">
          <mxGeometry relative="1" as="geometry" />
        </mxCell>
        <mxCell id="40NyG70ImDQyrmvecJQj-50" style="edgeStyle=none;curved=1;rounded=0;orthogonalLoop=1;jettySize=auto;html=1;entryX=1;entryY=0.5;entryDx=0;entryDy=0;fontSize=12;startSize=8;endSize=8;startArrow=ERone;startFill=0;endArrow=none;" parent="1" source="40NyG70ImDQyrmvecJQj-1" target="40NyG70ImDQyrmvecJQj-30" edge="1">
          <mxGeometry relative="1" as="geometry" />
        </mxCell>
        <mxCell id="40NyG70ImDQyrmvecJQj-60" style="edgeStyle=none;curved=1;rounded=0;orthogonalLoop=1;jettySize=auto;html=1;entryX=1;entryY=0;entryDx=0;entryDy=0;fontSize=12;startSize=8;endSize=8;endArrow=none;startFill=0;startArrow=ERone;" parent="1" source="40NyG70ImDQyrmvecJQj-1" target="40NyG70ImDQyrmvecJQj-32" edge="1">
          <mxGeometry relative="1" as="geometry" />
        </mxCell>
        <mxCell id="40NyG70ImDQyrmvecJQj-67" style="edgeStyle=none;curved=1;rounded=0;orthogonalLoop=1;jettySize=auto;html=1;fontSize=12;startSize=8;endSize=8;endArrow=none;startFill=0;startArrow=ERmandOne;" parent="1" source="40NyG70ImDQyrmvecJQj-1" target="40NyG70ImDQyrmvecJQj-66" edge="1">
          <mxGeometry relative="1" as="geometry" />
        </mxCell>
        <mxCell id="40NyG70ImDQyrmvecJQj-127" style="edgeStyle=none;curved=1;rounded=0;orthogonalLoop=1;jettySize=auto;html=1;fontSize=12;startSize=8;endSize=8;" parent="1" source="40NyG70ImDQyrmvecJQj-1" target="40NyG70ImDQyrmvecJQj-126" edge="1">
          <mxGeometry relative="1" as="geometry" />
        </mxCell>
        <mxCell id="40NyG70ImDQyrmvecJQj-1" value="User" style="rounded=0;whiteSpace=wrap;html=1;fontSize=19;" parent="1" vertex="1">
          <mxGeometry x="720" y="160" width="120" height="60" as="geometry" />
        </mxCell>
        <mxCell id="40NyG70ImDQyrmvecJQj-48" style="edgeStyle=none;curved=1;rounded=0;orthogonalLoop=1;jettySize=auto;html=1;entryX=0.5;entryY=0;entryDx=0;entryDy=0;fontSize=12;startSize=8;endSize=8;endArrow=none;startFill=0;startArrow=ERone;" parent="1" source="40NyG70ImDQyrmvecJQj-2" target="40NyG70ImDQyrmvecJQj-40" edge="1">
          <mxGeometry relative="1" as="geometry" />
        </mxCell>
        <mxCell id="40NyG70ImDQyrmvecJQj-104" style="edgeStyle=none;curved=1;rounded=0;orthogonalLoop=1;jettySize=auto;html=1;fontSize=12;startSize=8;endSize=8;" parent="1" source="40NyG70ImDQyrmvecJQj-2" target="40NyG70ImDQyrmvecJQj-93" edge="1">
          <mxGeometry relative="1" as="geometry" />
        </mxCell>
        <mxCell id="40NyG70ImDQyrmvecJQj-105" style="edgeStyle=none;curved=1;rounded=0;orthogonalLoop=1;jettySize=auto;html=1;entryX=0;entryY=1;entryDx=0;entryDy=0;fontSize=12;startSize=8;endSize=8;" parent="1" source="40NyG70ImDQyrmvecJQj-2" target="40NyG70ImDQyrmvecJQj-95" edge="1">
          <mxGeometry relative="1" as="geometry" />
        </mxCell>
        <mxCell id="40NyG70ImDQyrmvecJQj-106" style="edgeStyle=none;curved=1;rounded=0;orthogonalLoop=1;jettySize=auto;html=1;entryX=0;entryY=1;entryDx=0;entryDy=0;fontSize=12;startSize=8;endSize=8;" parent="1" source="40NyG70ImDQyrmvecJQj-2" target="40NyG70ImDQyrmvecJQj-96" edge="1">
          <mxGeometry relative="1" as="geometry" />
        </mxCell>
        <mxCell id="40NyG70ImDQyrmvecJQj-107" style="edgeStyle=none;curved=1;rounded=0;orthogonalLoop=1;jettySize=auto;html=1;entryX=0;entryY=0.5;entryDx=0;entryDy=0;fontSize=12;startSize=8;endSize=8;" parent="1" source="40NyG70ImDQyrmvecJQj-2" target="40NyG70ImDQyrmvecJQj-97" edge="1">
          <mxGeometry relative="1" as="geometry" />
        </mxCell>
        <mxCell id="40NyG70ImDQyrmvecJQj-2" value="UserAddress" style="rounded=0;whiteSpace=wrap;html=1;fontSize=19;" parent="1" vertex="1">
          <mxGeometry x="640" y="-60" width="120" height="60" as="geometry" />
        </mxCell>
        <mxCell id="40NyG70ImDQyrmvecJQj-46" style="edgeStyle=none;curved=1;rounded=0;orthogonalLoop=1;jettySize=auto;html=1;exitX=1;exitY=0.5;exitDx=0;exitDy=0;entryX=0;entryY=0.5;entryDx=0;entryDy=0;fontSize=12;startSize=8;endSize=8;endArrow=none;startFill=0;startArrow=ERone;" parent="1" source="40NyG70ImDQyrmvecJQj-3" target="40NyG70ImDQyrmvecJQj-42" edge="1">
          <mxGeometry relative="1" as="geometry" />
        </mxCell>
        <mxCell id="40NyG70ImDQyrmvecJQj-89" value="" style="edgeStyle=none;curved=1;rounded=0;orthogonalLoop=1;jettySize=auto;html=1;fontSize=12;startSize=8;endSize=8;" parent="1" source="40NyG70ImDQyrmvecJQj-3" target="40NyG70ImDQyrmvecJQj-84" edge="1">
          <mxGeometry relative="1" as="geometry" />
        </mxCell>
        <mxCell id="40NyG70ImDQyrmvecJQj-90" style="edgeStyle=none;curved=1;rounded=0;orthogonalLoop=1;jettySize=auto;html=1;entryX=1;entryY=1;entryDx=0;entryDy=0;fontSize=12;startSize=8;endSize=8;" parent="1" source="40NyG70ImDQyrmvecJQj-3" target="40NyG70ImDQyrmvecJQj-85" edge="1">
          <mxGeometry relative="1" as="geometry" />
        </mxCell>
        <mxCell id="40NyG70ImDQyrmvecJQj-3" value="City" style="rounded=0;whiteSpace=wrap;html=1;fontSize=19;" parent="1" vertex="1">
          <mxGeometry x="265" y="-180" width="120" height="60" as="geometry" />
        </mxCell>
        <mxCell id="40NyG70ImDQyrmvecJQj-44" style="edgeStyle=none;curved=1;rounded=0;orthogonalLoop=1;jettySize=auto;html=1;exitX=1;exitY=0.5;exitDx=0;exitDy=0;entryX=0;entryY=0;entryDx=0;entryDy=0;fontSize=12;startSize=8;endSize=8;endArrow=none;startFill=0;startArrow=ERmandOne;" parent="1" source="40NyG70ImDQyrmvecJQj-5" target="40NyG70ImDQyrmvecJQj-43" edge="1">
          <mxGeometry relative="1" as="geometry" />
        </mxCell>
        <mxCell id="40NyG70ImDQyrmvecJQj-87" value="" style="edgeStyle=none;curved=1;rounded=0;orthogonalLoop=1;jettySize=auto;html=1;fontSize=12;startSize=8;endSize=8;" parent="1" source="40NyG70ImDQyrmvecJQj-5" target="40NyG70ImDQyrmvecJQj-82" edge="1">
          <mxGeometry relative="1" as="geometry" />
        </mxCell>
        <mxCell id="40NyG70ImDQyrmvecJQj-88" style="edgeStyle=none;curved=1;rounded=0;orthogonalLoop=1;jettySize=auto;html=1;fontSize=12;startSize=8;endSize=8;" parent="1" source="40NyG70ImDQyrmvecJQj-5" target="40NyG70ImDQyrmvecJQj-83" edge="1">
          <mxGeometry relative="1" as="geometry" />
        </mxCell>
        <mxCell id="40NyG70ImDQyrmvecJQj-5" value="Province" style="rounded=0;whiteSpace=wrap;html=1;fontSize=19;" parent="1" vertex="1">
          <mxGeometry x="-40" y="-140" width="120" height="60" as="geometry" />
        </mxCell>
        <mxCell id="40NyG70ImDQyrmvecJQj-54" style="edgeStyle=none;curved=1;rounded=0;orthogonalLoop=1;jettySize=auto;html=1;entryX=1;entryY=0.5;entryDx=0;entryDy=0;fontSize=12;startSize=8;endSize=8;endArrow=none;endFill=0;startFill=0;startArrow=ERzeroToMany;" parent="1" source="40NyG70ImDQyrmvecJQj-6" target="40NyG70ImDQyrmvecJQj-28" edge="1">
          <mxGeometry relative="1" as="geometry" />
        </mxCell>
        <mxCell id="40NyG70ImDQyrmvecJQj-6" value="Product" style="rounded=0;whiteSpace=wrap;html=1;fontSize=19;direction=west;verticalAlign=middle;" parent="1" vertex="1">
          <mxGeometry x="365" y="370" width="120" height="60" as="geometry" />
        </mxCell>
        <mxCell id="40NyG70ImDQyrmvecJQj-7" value="Category" style="rounded=0;whiteSpace=wrap;html=1;fontSize=19;direction=west;verticalAlign=middle;" parent="1" vertex="1">
          <mxGeometry x="20" y="370" width="120" height="60" as="geometry" />
        </mxCell>
        <mxCell id="40NyG70ImDQyrmvecJQj-75" value="" style="edgeStyle=none;curved=1;rounded=0;orthogonalLoop=1;jettySize=auto;html=1;fontSize=12;startSize=8;endSize=8;endArrow=none;startFill=0;startArrow=ERone;" parent="1" source="40NyG70ImDQyrmvecJQj-8" target="40NyG70ImDQyrmvecJQj-38" edge="1">
          <mxGeometry relative="1" as="geometry" />
        </mxCell>
        <mxCell id="40NyG70ImDQyrmvecJQj-119" style="edgeStyle=none;curved=1;rounded=0;orthogonalLoop=1;jettySize=auto;html=1;entryX=1;entryY=0.5;entryDx=0;entryDy=0;fontSize=12;startSize=8;endSize=8;" parent="1" source="40NyG70ImDQyrmvecJQj-8" target="40NyG70ImDQyrmvecJQj-118" edge="1">
          <mxGeometry relative="1" as="geometry" />
        </mxCell>
        <mxCell id="40NyG70ImDQyrmvecJQj-8" value="Vendor" style="rounded=0;whiteSpace=wrap;html=1;fontSize=19;" parent="1" vertex="1">
          <mxGeometry x="1100" y="530" width="120" height="60" as="geometry" />
        </mxCell>
        <mxCell id="cq8yt8BIAIBdKAfmv7zH-1" value="Question" style="rounded=0;whiteSpace=wrap;html=1;fontSize=19;" vertex="1" parent="1">
          <mxGeometry x="1310" y="420" width="120" height="60" as="geometry" />
        </mxCell>
        <mxCell id="40NyG70ImDQyrmvecJQj-72" value="" style="edgeStyle=none;curved=1;rounded=0;orthogonalLoop=1;jettySize=auto;html=1;fontSize=12;startSize=8;endSize=8;endArrow=none;endFill=0;startFill=0;startArrow=ERmandOne;" parent="1" source="40NyG70ImDQyrmvecJQj-9" target="40NyG70ImDQyrmvecJQj-36" edge="1">
          <mxGeometry relative="1" as="geometry" />
        </mxCell>
        <mxCell id="40NyG70ImDQyrmvecJQj-73" value="" style="edgeStyle=none;curved=1;rounded=0;orthogonalLoop=1;jettySize=auto;html=1;fontSize=12;startSize=8;endSize=8;endArrow=none;startFill=0;startArrow=ERmandOne;" parent="1" source="40NyG70ImDQyrmvecJQj-9" target="40NyG70ImDQyrmvecJQj-35" edge="1">
          <mxGeometry relative="1" as="geometry" />
        </mxCell>
        <mxCell id="40NyG70ImDQyrmvecJQj-9" value="Cart" style="rounded=0;whiteSpace=wrap;html=1;fontSize=19;" parent="1" vertex="1">
          <mxGeometry x="775" y="760" width="120" height="60" as="geometry" />
        </mxCell>
        <mxCell id="40NyG70ImDQyrmvecJQj-69" value="" style="edgeStyle=none;curved=1;rounded=0;orthogonalLoop=1;jettySize=auto;html=1;fontSize=12;startSize=8;endSize=8;endArrow=none;startFill=0;startArrow=ERzeroToMany;exitX=0.5;exitY=0;exitDx=0;exitDy=0;" parent="1" source="40NyG70ImDQyrmvecJQj-10" target="40NyG70ImDQyrmvecJQj-36" edge="1">
          <mxGeometry relative="1" as="geometry">
            <mxPoint x="835" y="980" as="sourcePoint" />
          </mxGeometry>
        </mxCell>
        <mxCell id="40NyG70ImDQyrmvecJQj-10" value="CartItem" style="rounded=0;whiteSpace=wrap;html=1;fontSize=19;" parent="1" vertex="1">
          <mxGeometry x="770" y="990" width="120" height="60" as="geometry" />
        </mxCell>
        <mxCell id="40NyG70ImDQyrmvecJQj-52" style="edgeStyle=none;curved=1;rounded=0;orthogonalLoop=1;jettySize=auto;html=1;exitX=0.5;exitY=1;exitDx=0;exitDy=0;entryX=0.5;entryY=0;entryDx=0;entryDy=0;fontSize=12;startSize=8;endSize=8;endArrow=ERzeroToMany;endFill=0;" parent="1" source="40NyG70ImDQyrmvecJQj-13" target="40NyG70ImDQyrmvecJQj-29" edge="1">
          <mxGeometry relative="1" as="geometry" />
        </mxCell>
        <mxCell id="40NyG70ImDQyrmvecJQj-131" style="edgeStyle=none;curved=1;rounded=0;orthogonalLoop=1;jettySize=auto;html=1;fontSize=12;startSize=8;endSize=8;" parent="1" source="40NyG70ImDQyrmvecJQj-13" target="40NyG70ImDQyrmvecJQj-128" edge="1">
          <mxGeometry relative="1" as="geometry" />
        </mxCell>
        <mxCell id="40NyG70ImDQyrmvecJQj-13" value="Review" style="rounded=0;whiteSpace=wrap;html=1;fontSize=19;" parent="1" vertex="1">
          <mxGeometry x="365" y="110" width="120" height="60" as="geometry" />
        </mxCell>
        <mxCell id="40NyG70ImDQyrmvecJQj-56" style="edgeStyle=none;curved=1;rounded=0;orthogonalLoop=1;jettySize=auto;html=1;exitX=1;exitY=0.5;exitDx=0;exitDy=0;entryX=0;entryY=0.5;entryDx=0;entryDy=0;fontSize=12;startSize=8;endSize=8;endArrow=none;endFill=0;startArrow=ERoneToMany;startFill=0;" parent="1" source="40NyG70ImDQyrmvecJQj-11" target="40NyG70ImDQyrmvecJQj-34" edge="1">
          <mxGeometry relative="1" as="geometry" />
        </mxCell>
        <mxCell id="40NyG70ImDQyrmvecJQj-11" value="OrderItem" style="rounded=0;whiteSpace=wrap;html=1;fontSize=19;" parent="1" vertex="1">
          <mxGeometry x="150" y="610" width="120" height="60" as="geometry" />
        </mxCell>
        <mxCell id="40NyG70ImDQyrmvecJQj-64" style="edgeStyle=none;curved=1;rounded=0;orthogonalLoop=1;jettySize=auto;html=1;exitX=0.5;exitY=1;exitDx=0;exitDy=0;entryX=0.5;entryY=0;entryDx=0;entryDy=0;fontSize=12;startSize=8;endSize=8;endArrow=none;startFill=0;startArrow=ERmandOne;" parent="1" source="40NyG70ImDQyrmvecJQj-12" target="40NyG70ImDQyrmvecJQj-63" edge="1">
          <mxGeometry relative="1" as="geometry" />
        </mxCell>
        <mxCell id="40NyG70ImDQyrmvecJQj-12" value="Order" style="rounded=0;whiteSpace=wrap;html=1;fontSize=19;" parent="1" vertex="1">
          <mxGeometry x="410" y="610" width="120" height="60" as="geometry" />
        </mxCell>
        <mxCell id="40NyG70ImDQyrmvecJQj-16" value="Id" style="ellipse;whiteSpace=wrap;html=1;" parent="1" vertex="1">
          <mxGeometry x="930" y="10" width="120" height="80" as="geometry" />
        </mxCell>
        <mxCell id="40NyG70ImDQyrmvecJQj-17" value="First Name" style="ellipse;whiteSpace=wrap;html=1;" parent="1" vertex="1">
          <mxGeometry x="1100" y="50" width="120" height="80" as="geometry" />
        </mxCell>
        <mxCell id="40NyG70ImDQyrmvecJQj-18" value="Last Name" style="ellipse;whiteSpace=wrap;html=1;" parent="1" vertex="1">
          <mxGeometry x="1100" y="130" width="120" height="80" as="geometry" />
        </mxCell>
        <mxCell id="40NyG70ImDQyrmvecJQj-19" value="Email Address" style="ellipse;whiteSpace=wrap;html=1;" parent="1" vertex="1">
          <mxGeometry x="1110" y="220" width="120" height="80" as="geometry" />
        </mxCell>
        <mxCell id="40NyG70ImDQyrmvecJQj-20" value="Phone Number" style="ellipse;whiteSpace=wrap;html=1;" parent="1" vertex="1">
          <mxGeometry x="1120" y="300" width="120" height="80" as="geometry" />
        </mxCell>
        <mxCell id="40NyG70ImDQyrmvecJQj-21" value="National Code" style="ellipse;whiteSpace=wrap;html=1;" parent="1" vertex="1">
          <mxGeometry x="980" y="280" width="120" height="80" as="geometry" />
        </mxCell>
        <mxCell id="40NyG70ImDQyrmvecJQj-55" value="" style="edgeStyle=none;curved=1;rounded=0;orthogonalLoop=1;jettySize=auto;html=1;fontSize=12;startSize=8;endSize=8;endArrow=ERone;endFill=0;" parent="1" source="40NyG70ImDQyrmvecJQj-28" target="40NyG70ImDQyrmvecJQj-7" edge="1">
          <mxGeometry relative="1" as="geometry" />
        </mxCell>
        <mxCell id="40NyG70ImDQyrmvecJQj-28" value="has" style="rhombus;whiteSpace=wrap;html=1;" parent="1" vertex="1">
          <mxGeometry x="220" y="360" width="80" height="80" as="geometry" />
        </mxCell>
        <mxCell id="40NyG70ImDQyrmvecJQj-57" style="edgeStyle=none;curved=1;rounded=0;orthogonalLoop=1;jettySize=auto;html=1;exitX=1;exitY=0.5;exitDx=0;exitDy=0;entryX=0;entryY=0.5;entryDx=0;entryDy=0;fontSize=12;startSize=8;endSize=8;endArrow=none;startFill=0;" parent="1" source="40NyG70ImDQyrmvecJQj-34" target="40NyG70ImDQyrmvecJQj-12" edge="1">
          <mxGeometry relative="1" as="geometry" />
        </mxCell>
        <mxCell id="40NyG70ImDQyrmvecJQj-34" value="has" style="rhombus;whiteSpace=wrap;html=1;" parent="1" vertex="1">
          <mxGeometry x="305" y="600" width="80" height="80" as="geometry" />
        </mxCell>
        <mxCell id="40NyG70ImDQyrmvecJQj-53" style="edgeStyle=none;curved=1;rounded=0;orthogonalLoop=1;jettySize=auto;html=1;exitX=0.5;exitY=1;exitDx=0;exitDy=0;entryX=0.5;entryY=1;entryDx=0;entryDy=0;fontSize=12;startSize=8;endSize=8;endArrow=ERone;endFill=0;" parent="1" source="40NyG70ImDQyrmvecJQj-29" target="40NyG70ImDQyrmvecJQj-6" edge="1">
          <mxGeometry relative="1" as="geometry" />
        </mxCell>
        <mxCell id="40NyG70ImDQyrmvecJQj-29" value="has" style="rhombus;whiteSpace=wrap;html=1;" parent="1" vertex="1">
          <mxGeometry x="385" y="210" width="80" height="80" as="geometry" />
        </mxCell>
        <mxCell id="40NyG70ImDQyrmvecJQj-51" style="edgeStyle=none;curved=1;rounded=0;orthogonalLoop=1;jettySize=auto;html=1;exitX=0;exitY=0.5;exitDx=0;exitDy=0;entryX=1;entryY=0.5;entryDx=0;entryDy=0;fontSize=12;startSize=8;endSize=8;endArrow=ERzeroToMany;endFill=0;" parent="1" source="40NyG70ImDQyrmvecJQj-30" target="40NyG70ImDQyrmvecJQj-13" edge="1">
          <mxGeometry relative="1" as="geometry" />
        </mxCell>
        <mxCell id="40NyG70ImDQyrmvecJQj-30" value="leaves" style="rhombus;whiteSpace=wrap;html=1;" parent="1" vertex="1">
          <mxGeometry x="550" y="190" width="80" height="80" as="geometry" />
        </mxCell>
        <mxCell id="40NyG70ImDQyrmvecJQj-58" value="" style="edgeStyle=none;curved=1;rounded=0;orthogonalLoop=1;jettySize=auto;html=1;fontSize=12;startSize=8;endSize=8;endArrow=ERone;endFill=0;" parent="1" source="40NyG70ImDQyrmvecJQj-31" target="40NyG70ImDQyrmvecJQj-11" edge="1">
          <mxGeometry relative="1" as="geometry" />
        </mxCell>
        <mxCell id="40NyG70ImDQyrmvecJQj-59" style="edgeStyle=none;curved=1;rounded=0;orthogonalLoop=1;jettySize=auto;html=1;entryX=1;entryY=0;entryDx=0;entryDy=0;fontSize=12;startSize=8;endSize=8;endArrow=ERone;endFill=0;" parent="1" source="40NyG70ImDQyrmvecJQj-31" target="40NyG70ImDQyrmvecJQj-6" edge="1">
          <mxGeometry relative="1" as="geometry" />
        </mxCell>
        <mxCell id="40NyG70ImDQyrmvecJQj-31" value="has" style="rhombus;whiteSpace=wrap;html=1;" parent="1" vertex="1">
          <mxGeometry x="190" y="490" width="80" height="80" as="geometry" />
        </mxCell>
        <mxCell id="40NyG70ImDQyrmvecJQj-61" style="edgeStyle=none;curved=1;rounded=0;orthogonalLoop=1;jettySize=auto;html=1;entryX=1;entryY=0;entryDx=0;entryDy=0;fontSize=12;startSize=8;endSize=8;endArrow=ERzeroToMany;endFill=0;" parent="1" source="40NyG70ImDQyrmvecJQj-32" target="40NyG70ImDQyrmvecJQj-12" edge="1">
          <mxGeometry relative="1" as="geometry" />
        </mxCell>
        <mxCell id="40NyG70ImDQyrmvecJQj-32" value="purchase" style="rhombus;whiteSpace=wrap;html=1;" parent="1" vertex="1">
          <mxGeometry x="590" y="410" width="80" height="80" as="geometry" />
        </mxCell>
        <mxCell id="40NyG70ImDQyrmvecJQj-74" style="edgeStyle=none;curved=1;rounded=0;orthogonalLoop=1;jettySize=auto;html=1;entryX=0.5;entryY=1;entryDx=0;entryDy=0;fontSize=12;startSize=8;endSize=8;endArrow=ERmandOne;endFill=0;" parent="1" source="40NyG70ImDQyrmvecJQj-35" target="40NyG70ImDQyrmvecJQj-1" edge="1">
          <mxGeometry relative="1" as="geometry" />
        </mxCell>
        <mxCell id="40NyG70ImDQyrmvecJQj-35" value="has" style="rhombus;whiteSpace=wrap;html=1;" parent="1" vertex="1">
          <mxGeometry x="795" y="640" width="80" height="80" as="geometry" />
        </mxCell>
        <mxCell id="40NyG70ImDQyrmvecJQj-36" value="has" style="rhombus;whiteSpace=wrap;html=1;" parent="1" vertex="1">
          <mxGeometry x="795" y="860" width="80" height="80" as="geometry" />
        </mxCell>
        <mxCell id="40NyG70ImDQyrmvecJQj-77" style="edgeStyle=none;curved=1;rounded=0;orthogonalLoop=1;jettySize=auto;html=1;fontSize=12;startSize=8;endSize=8;endArrow=ERzeroToOne;endFill=0;" parent="1" source="40NyG70ImDQyrmvecJQj-37" target="40NyG70ImDQyrmvecJQj-8" edge="1">
          <mxGeometry relative="1" as="geometry" />
        </mxCell>
        <mxCell id="40NyG70ImDQyrmvecJQj-78" style="edgeStyle=none;curved=1;rounded=0;orthogonalLoop=1;jettySize=auto;html=1;entryX=1;entryY=1;entryDx=0;entryDy=0;fontSize=12;startSize=8;endSize=8;endArrow=ERmandOne;endFill=0;" parent="1" source="40NyG70ImDQyrmvecJQj-37" target="40NyG70ImDQyrmvecJQj-1" edge="1">
          <mxGeometry relative="1" as="geometry" />
        </mxCell>
        <mxCell id="40NyG70ImDQyrmvecJQj-37" value="is" style="rhombus;whiteSpace=wrap;html=1;" parent="1" vertex="1">
          <mxGeometry x="990" y="390" width="80" height="80" as="geometry" />
        </mxCell>
        <mxCell id="cq8yt8BIAIBdKAfmv7zH-2" value="asks" style="rhombus;whiteSpace=wrap;html=1;" vertex="1" parent="1">
          <mxGeometry x="1130" y="380" width="80" height="80" as="geometry" />
        </mxCell>
        <mxCell id="cq8yt8BIAIBdKAfmv7zH-3" value="answers" style="rhombus;whiteSpace=wrap;html=1;" vertex="1" parent="1">
          <mxGeometry x="1300" y="550" width="80" height="80" as="geometry" />
        </mxCell>
        <mxCell id="40NyG70ImDQyrmvecJQj-76" style="edgeStyle=none;curved=1;rounded=0;orthogonalLoop=1;jettySize=auto;html=1;entryX=0;entryY=0.75;entryDx=0;entryDy=0;fontSize=12;startSize=8;endSize=8;endArrow=ERzeroToMany;endFill=0;" parent="1" source="40NyG70ImDQyrmvecJQj-38" target="40NyG70ImDQyrmvecJQj-6" edge="1">
          <mxGeometry relative="1" as="geometry" />
        </mxCell>
        <mxCell id="40NyG70ImDQyrmvecJQj-38" value="sells" style="rhombus;whiteSpace=wrap;html=1;" parent="1" vertex="1">
          <mxGeometry x="920" y="500" width="80" height="80" as="geometry" />
        </mxCell>
        <mxCell id="40NyG70ImDQyrmvecJQj-49" style="edgeStyle=none;curved=1;rounded=0;orthogonalLoop=1;jettySize=auto;html=1;exitX=0.5;exitY=1;exitDx=0;exitDy=0;entryX=0.5;entryY=0;entryDx=0;entryDy=0;fontSize=12;startSize=8;endSize=8;endArrow=ERone;endFill=0;" parent="1" source="40NyG70ImDQyrmvecJQj-40" target="40NyG70ImDQyrmvecJQj-1" edge="1">
          <mxGeometry relative="1" as="geometry" />
        </mxCell>
        <mxCell id="40NyG70ImDQyrmvecJQj-40" value="has" style="rhombus;whiteSpace=wrap;html=1;" parent="1" vertex="1">
          <mxGeometry x="740" y="60" width="80" height="80" as="geometry" />
        </mxCell>
        <mxCell id="40NyG70ImDQyrmvecJQj-47" style="edgeStyle=none;curved=1;rounded=0;orthogonalLoop=1;jettySize=auto;html=1;exitX=0.5;exitY=1;exitDx=0;exitDy=0;entryX=0;entryY=0;entryDx=0;entryDy=0;fontSize=12;startSize=8;endSize=8;endArrow=ERzeroToMany;endFill=0;" parent="1" source="40NyG70ImDQyrmvecJQj-42" target="40NyG70ImDQyrmvecJQj-2" edge="1">
          <mxGeometry relative="1" as="geometry" />
        </mxCell>
        <mxCell id="40NyG70ImDQyrmvecJQj-42" value="has" style="rhombus;whiteSpace=wrap;html=1;" parent="1" vertex="1">
          <mxGeometry x="480" y="-160" width="80" height="80" as="geometry" />
        </mxCell>
        <mxCell id="40NyG70ImDQyrmvecJQj-45" style="edgeStyle=none;curved=1;rounded=0;orthogonalLoop=1;jettySize=auto;html=1;entryX=0;entryY=0.5;entryDx=0;entryDy=0;fontSize=12;startSize=8;endSize=8;endArrow=ERzeroToMany;endFill=0;" parent="1" source="40NyG70ImDQyrmvecJQj-43" target="40NyG70ImDQyrmvecJQj-3" edge="1">
          <mxGeometry relative="1" as="geometry" />
        </mxCell>
        <mxCell id="40NyG70ImDQyrmvecJQj-43" value="within" style="rhombus;whiteSpace=wrap;html=1;" parent="1" vertex="1">
          <mxGeometry x="145" y="-100" width="80" height="80" as="geometry" />
        </mxCell>
        <mxCell id="40NyG70ImDQyrmvecJQj-65" value="" style="edgeStyle=none;curved=1;rounded=0;orthogonalLoop=1;jettySize=auto;html=1;fontSize=12;startSize=8;endSize=8;endArrow=none;startFill=0;startArrow=ERmandOne;" parent="1" source="40NyG70ImDQyrmvecJQj-62" target="40NyG70ImDQyrmvecJQj-63" edge="1">
          <mxGeometry relative="1" as="geometry" />
        </mxCell>
        <mxCell id="40NyG70ImDQyrmvecJQj-62" value="Payment" style="rounded=0;whiteSpace=wrap;html=1;" parent="1" vertex="1">
          <mxGeometry x="410" y="830" width="120" height="60" as="geometry" />
        </mxCell>
        <mxCell id="40NyG70ImDQyrmvecJQj-63" value="paid" style="rhombus;whiteSpace=wrap;html=1;" parent="1" vertex="1">
          <mxGeometry x="430" y="720" width="80" height="80" as="geometry" />
        </mxCell>
        <mxCell id="40NyG70ImDQyrmvecJQj-68" style="edgeStyle=none;curved=1;rounded=0;orthogonalLoop=1;jettySize=auto;html=1;entryX=1;entryY=0;entryDx=0;entryDy=0;fontSize=12;startSize=8;endSize=8;endArrow=ERzeroToMany;endFill=0;" parent="1" source="40NyG70ImDQyrmvecJQj-66" target="40NyG70ImDQyrmvecJQj-62" edge="1">
          <mxGeometry relative="1" as="geometry" />
        </mxCell>
        <mxCell id="40NyG70ImDQyrmvecJQj-66" value="makes" style="rhombus;whiteSpace=wrap;html=1;" parent="1" vertex="1">
          <mxGeometry x="645" y="640" width="80" height="80" as="geometry" />
        </mxCell>
        <mxCell id="40NyG70ImDQyrmvecJQj-82" value="Id" style="ellipse;whiteSpace=wrap;html=1;" parent="1" vertex="1">
          <mxGeometry x="-25" y="-280" width="120" height="80" as="geometry" />
        </mxCell>
        <mxCell id="40NyG70ImDQyrmvecJQj-84" value="Id" style="ellipse;whiteSpace=wrap;html=1;" parent="1" vertex="1">
          <mxGeometry x="245" y="-300" width="120" height="80" as="geometry" />
        </mxCell>
        <mxCell id="40NyG70ImDQyrmvecJQj-83" value="Name" style="ellipse;whiteSpace=wrap;html=1;" parent="1" vertex="1">
          <mxGeometry x="-185" y="-220" width="120" height="80" as="geometry" />
        </mxCell>
        <mxCell id="40NyG70ImDQyrmvecJQj-85" value="Name" style="ellipse;whiteSpace=wrap;html=1;" parent="1" vertex="1">
          <mxGeometry x="135" y="-240" width="120" height="80" as="geometry" />
        </mxCell>
        <mxCell id="40NyG70ImDQyrmvecJQj-91" value="Id" style="ellipse;whiteSpace=wrap;html=1;" parent="1" vertex="1">
          <mxGeometry x="590" y="-200" width="120" height="80" as="geometry" />
        </mxCell>
        <mxCell id="40NyG70ImDQyrmvecJQj-92" value="Street" style="ellipse;whiteSpace=wrap;html=1;" parent="1" vertex="1">
          <mxGeometry x="710" y="-240" width="120" height="80" as="geometry" />
        </mxCell>
        <mxCell id="40NyG70ImDQyrmvecJQj-93" value="Alley" style="ellipse;whiteSpace=wrap;html=1;" parent="1" vertex="1">
          <mxGeometry x="840" y="-200" width="120" height="80" as="geometry" />
        </mxCell>
        <mxCell id="40NyG70ImDQyrmvecJQj-94" value="Plate Number" style="ellipse;whiteSpace=wrap;html=1;" parent="1" vertex="1">
          <mxGeometry x="740" y="-350" width="120" height="80" as="geometry" />
        </mxCell>
        <mxCell id="40NyG70ImDQyrmvecJQj-99" value="Phone Number" style="ellipse;whiteSpace=wrap;html=1;" parent="1" vertex="1">
          <mxGeometry x="570" y="-330" width="120" height="80" as="geometry" />
        </mxCell>
        <mxCell id="40NyG70ImDQyrmvecJQj-95" value="Level" style="ellipse;whiteSpace=wrap;html=1;" parent="1" vertex="1">
          <mxGeometry x="870" y="-310" width="120" height="80" as="geometry" />
        </mxCell>
        <mxCell id="40NyG70ImDQyrmvecJQj-96" value="Unit" style="ellipse;whiteSpace=wrap;html=1;" parent="1" vertex="1">
          <mxGeometry x="880" y="-120" width="120" height="80" as="geometry" />
        </mxCell>
        <mxCell id="40NyG70ImDQyrmvecJQj-97" value="Owner Name" style="ellipse;whiteSpace=wrap;html=1;" parent="1" vertex="1">
          <mxGeometry x="1010" y="-190" width="120" height="80" as="geometry" />
        </mxCell>
        <mxCell id="40NyG70ImDQyrmvecJQj-98" style="edgeStyle=none;curved=1;rounded=0;orthogonalLoop=1;jettySize=auto;html=1;exitX=0;exitY=1;exitDx=0;exitDy=0;fontSize=12;startSize=8;endSize=8;" parent="1" source="40NyG70ImDQyrmvecJQj-95" target="40NyG70ImDQyrmvecJQj-95" edge="1">
          <mxGeometry relative="1" as="geometry" />
        </mxCell>
        <mxCell id="40NyG70ImDQyrmvecJQj-100" style="edgeStyle=none;curved=1;rounded=0;orthogonalLoop=1;jettySize=auto;html=1;entryX=0.694;entryY=0.925;entryDx=0;entryDy=0;entryPerimeter=0;fontSize=12;startSize=8;endSize=8;" parent="1" source="40NyG70ImDQyrmvecJQj-2" target="40NyG70ImDQyrmvecJQj-91" edge="1">
          <mxGeometry relative="1" as="geometry" />
        </mxCell>
        <mxCell id="40NyG70ImDQyrmvecJQj-101" style="edgeStyle=none;curved=1;rounded=0;orthogonalLoop=1;jettySize=auto;html=1;entryX=0.704;entryY=0.925;entryDx=0;entryDy=0;entryPerimeter=0;fontSize=12;startSize=8;endSize=8;" parent="1" source="40NyG70ImDQyrmvecJQj-2" target="40NyG70ImDQyrmvecJQj-99" edge="1">
          <mxGeometry relative="1" as="geometry" />
        </mxCell>
        <mxCell id="40NyG70ImDQyrmvecJQj-102" style="edgeStyle=none;curved=1;rounded=0;orthogonalLoop=1;jettySize=auto;html=1;entryX=0.35;entryY=0.972;entryDx=0;entryDy=0;entryPerimeter=0;fontSize=12;startSize=8;endSize=8;" parent="1" source="40NyG70ImDQyrmvecJQj-2" target="40NyG70ImDQyrmvecJQj-92" edge="1">
          <mxGeometry relative="1" as="geometry" />
        </mxCell>
        <mxCell id="40NyG70ImDQyrmvecJQj-103" style="edgeStyle=none;curved=1;rounded=0;orthogonalLoop=1;jettySize=auto;html=1;entryX=0.246;entryY=0.988;entryDx=0;entryDy=0;entryPerimeter=0;fontSize=12;startSize=8;endSize=8;" parent="1" source="40NyG70ImDQyrmvecJQj-2" target="40NyG70ImDQyrmvecJQj-94" edge="1">
          <mxGeometry relative="1" as="geometry" />
        </mxCell>
        <mxCell id="40NyG70ImDQyrmvecJQj-120" style="edgeStyle=none;curved=1;rounded=0;orthogonalLoop=1;jettySize=auto;html=1;exitX=0;exitY=0.5;exitDx=0;exitDy=0;fontSize=12;startSize=8;endSize=8;" parent="1" source="40NyG70ImDQyrmvecJQj-118" target="40NyG70ImDQyrmvecJQj-12" edge="1">
          <mxGeometry relative="1" as="geometry" />
        </mxCell>
        <mxCell id="40NyG70ImDQyrmvecJQj-118" value="confirms" style="rhombus;whiteSpace=wrap;html=1;" parent="1" vertex="1">
          <mxGeometry x="890" y="570" width="80" height="80" as="geometry" />
        </mxCell>
        <mxCell id="40NyG70ImDQyrmvecJQj-126" value="Password Hash" style="ellipse;whiteSpace=wrap;html=1;" parent="1" vertex="1">
          <mxGeometry x="1270" y="140" width="120" height="80" as="geometry" />
        </mxCell>
        <mxCell id="40NyG70ImDQyrmvecJQj-128" value="Id" style="ellipse;whiteSpace=wrap;html=1;" parent="1" vertex="1">
          <mxGeometry x="180" y="100" width="120" height="80" as="geometry" />
        </mxCell>
        <mxCell id="40NyG70ImDQyrmvecJQj-129" value="Comment" style="ellipse;whiteSpace=wrap;html=1;" parent="1" vertex="1">
          <mxGeometry x="270" y="-10" width="120" height="80" as="geometry" />
        </mxCell>
        <mxCell id="40NyG70ImDQyrmvecJQj-130" value="Rating Score" style="ellipse;whiteSpace=wrap;html=1;" parent="1" vertex="1">
          <mxGeometry x="410" y="-10" width="120" height="80" as="geometry" />
        </mxCell>
        <mxCell id="40NyG70ImDQyrmvecJQj-132" style="edgeStyle=none;curved=1;rounded=0;orthogonalLoop=1;jettySize=auto;html=1;entryX=0.75;entryY=1;entryDx=0;entryDy=0;entryPerimeter=0;fontSize=12;startSize=8;endSize=8;" parent="1" source="40NyG70ImDQyrmvecJQj-13" target="40NyG70ImDQyrmvecJQj-129" edge="1">
          <mxGeometry relative="1" as="geometry" />
        </mxCell>
        <mxCell id="40NyG70ImDQyrmvecJQj-133" style="edgeStyle=none;curved=1;rounded=0;orthogonalLoop=1;jettySize=auto;html=1;entryX=0.351;entryY=1.025;entryDx=0;entryDy=0;entryPerimeter=0;fontSize=12;startSize=8;endSize=8;" parent="1" source="40NyG70ImDQyrmvecJQj-13" target="40NyG70ImDQyrmvecJQj-130" edge="1">
          <mxGeometry relative="1" as="geometry" />
        </mxCell>
      </root>
    </mxGraphModel>
  </diagram>
</mxfile>
